<?xml version="1.0" encoding="UTF-8" standalone="no"?>
<!DOCTYPE svg PUBLIC "-//W3C//DTD SVG 1.1//EN"
 "http://www.w3.org/Graphics/SVG/1.1/DTD/svg11.dtd">
<!-- Generated by graphviz version 12.2.1 (20241206.2353)
 -->
<!-- Title: ast Pages: 1 -->
<svg width="422pt" height="116pt"
 viewBox="0.00 0.00 421.90 116.00" xmlns="http://www.w3.org/2000/svg" xmlns:xlink="http://www.w3.org/1999/xlink">
<g id="graph0" class="graph" transform="scale(1 1) rotate(0) translate(4 112)">
<title>ast</title>
<polygon fill="white" stroke="none" points="-4,4 -4,-112 417.9,-112 417.9,4 -4,4"/>
<!-- setup_email_service -->
<g id="node1" class="node">
<title>setup_email_service</title>
<ellipse fill="none" stroke="black" cx="86.67" cy="-18" rx="86.67" ry="18"/>
<text text-anchor="middle" x="86.67" y="-12.95" font-family="Times,serif" font-size="14.00">setup_email_service</text>
</g>
<!-- setup_campaign_scheduler -->
<g id="node2" class="node">
<title>setup_campaign_scheduler</title>
<ellipse fill="none" stroke="black" cx="302.67" cy="-18" rx="111.23" ry="18"/>
<text text-anchor="middle" x="302.67" y="-12.95" font-family="Times,serif" font-size="14.00">setup_campaign_scheduler</text>
</g>
<!-- main -->
<g id="node3" class="node">
<title>main</title>
<ellipse fill="none" stroke="black" cx="194.67" cy="-90" rx="29.86" ry="18"/>
<text text-anchor="middle" x="194.67" y="-84.95" font-family="Times,serif" font-size="14.00">main</text>
</g>
<!-- main&#45;&gt;setup_email_service -->
<g id="edge1" class="edge">
<title>main&#45;&gt;setup_email_service</title>
<path fill="none" stroke="black" stroke-dasharray="5,2" d="M174.86,-76.16C159.82,-66.41 138.77,-52.77 121.01,-41.26"/>
<polygon fill="black" stroke="black" points="113.09,-36.13 123.93,-37.79 116.26,-38.18 121.48,-41.57 121.48,-41.57 121.48,-41.57 116.26,-38.18 119.03,-45.34 113.09,-36.13"/>
</g>
<!-- main&#45;&gt;setup_campaign_scheduler -->
<g id="edge2" class="edge">
<title>main&#45;&gt;setup_campaign_scheduler</title>
<path fill="none" stroke="black" stroke-dasharray="5,2" d="M214.48,-76.16C229.17,-66.64 249.6,-53.39 267.1,-42.05"/>
<polygon fill="black" stroke="black" points="275.44,-36.64 269.5,-45.86 272.27,-38.7 267.05,-42.08 267.05,-42.08 267.05,-42.08 272.27,-38.7 264.6,-38.31 275.44,-36.64"/>
</g>
</g>
</svg>
